<svg width="20" height="19" viewBox="0 0 20 19" fill="none" xmlns="http://www.w3.org/2000/svg">
<path d="M9.00002 11.0001V15.0001H11V11.0001H9.00002Z" fill="#2D2D2D"/>
<path d="M13 15.0001V11.0001H15V15.0001H13Z" fill="#2D2D2D"/>
<path d="M5.00002 11.0001V15.0001H7.00002V11.0001H5.00002Z" fill="#2D2D2D"/>
<path fill-rule="evenodd" clip-rule="evenodd" d="M3.41424 7.00006L8.70712 1.70718L7.29291 0.292969L0.297412 7.28846C0.272618 7.31295 0.248994 7.33884 0.226666 7.36607C0.0367278 7.59776 -0.0393271 7.9024 0.0194279 8.19618L2.01943 18.1962C2.11291 18.6636 2.52333 19.0001 3.00001 19.0001H17C17.4767 19.0001 17.8871 18.6636 17.9806 18.1962L19.9806 8.19618C20.0393 7.9024 19.9633 7.59776 19.7734 7.36607C19.7514 7.33926 19.7281 7.31375 19.7038 7.2896L12.7071 0.292969L11.2929 1.70718L16.5858 7.00006H3.41424ZM3.81981 17.0001L2.21981 9.00006H17.7802L16.1802 17.0001H3.81981Z" fill="#2D2D2D"/>
</svg>
