<svg width="24" height="24" viewBox="0 0 24 24" fill="none" xmlns="http://www.w3.org/2000/svg">
<path fill-rule="evenodd" clip-rule="evenodd" d="M1.5 9.36719C1.5 6.18048 4.06819 3.58594 7.25 3.58594C8.62017 3.58594 9.88018 4.06902 10.8674 4.87309C11.3635 5.27721 11.7262 5.6246 11.9972 5.9148C12.2699 5.62599 12.6346 5.27879 13.1326 4.87309C14.1198 4.06902 15.3798 3.58594 16.75 3.58594C19.9318 3.58594 22.5 6.18048 22.5 9.36719C22.5 11.4506 21.304 13.2947 20.0012 14.8023C17.8442 17.2984 15.3246 19.918 13.0045 22.0266C12.4346 22.5446 11.5654 22.5446 10.9955 22.0266C8.67538 19.918 6.15585 17.2984 3.99878 14.8023C2.696 13.2947 1.5 11.4506 1.5 9.36719Z" fill="#2D2D2D"/>
</svg>
