<svg width="24" height="24" viewBox="0 0 24 24" fill="none" xmlns="http://www.w3.org/2000/svg">
<path fill-rule="evenodd" clip-rule="evenodd" d="M7.25 5.58545C5.1851 5.58545 3.5 7.27218 3.5 9.3667C3.5 10.697 4.28051 12.069 5.51203 13.4941C7.51855 15.816 9.84195 18.2424 12 20.2341C14.158 18.2424 16.4815 15.816 18.488 13.4941C19.7195 12.069 20.5 10.697 20.5 9.3667C20.5 7.27218 18.8149 5.58545 16.75 5.58545C15.8578 5.58545 15.0401 5.89839 14.3957 6.4233C13.7157 6.97716 13.3584 7.37507 13.1598 7.61893C13.1085 7.68186 13.0653 7.73766 13.0257 7.78937C13.0189 7.79838 13.0114 7.80812 13.0037 7.81832C12.9727 7.85898 12.936 7.90713 12.9045 7.94632C12.8705 7.98862 12.7937 8.08367 12.69 8.1703C12.5854 8.2576 12.3356 8.43644 11.9692 8.42924C11.6073 8.42212 11.3669 8.23748 11.2697 8.15224C11.1711 8.06571 11.0976 7.97174 11.065 7.92979C11.0131 7.86303 10.9854 7.8252 10.9593 7.7895C10.9258 7.74359 10.8948 7.70121 10.8181 7.60533C10.6249 7.36387 10.2751 6.96968 9.60428 6.4233C8.95985 5.89839 8.14219 5.58545 7.25 5.58545ZM1.5 9.3667C1.5 6.18 4.06819 3.58545 7.25 3.58545C8.62017 3.58545 9.88018 4.06853 10.8674 4.8726C11.3635 5.27673 11.7262 5.62411 11.9972 5.91431C12.2699 5.6255 12.6346 5.2783 13.1326 4.8726C14.1198 4.06853 15.3798 3.58545 16.75 3.58545C19.9318 3.58545 22.5 6.18 22.5 9.3667C22.5 11.4501 21.304 13.2942 20.0012 14.8018C17.8442 17.2979 15.3246 19.9175 13.0045 22.0261C12.4346 22.5441 11.5654 22.5441 10.9955 22.0261C8.67538 19.9175 6.15585 17.2979 3.99878 14.8018C2.696 13.2942 1.5 11.4501 1.5 9.3667Z" fill="white"/>
</svg>
