<svg width="49" height="48" viewBox="0 0 49 48" fill="none" xmlns="http://www.w3.org/2000/svg">
<path fill-rule="evenodd" clip-rule="evenodd" d="M19.75 17.5859C17.6851 17.5859 16 19.2727 16 21.3672C16 22.6975 16.7805 24.0695 18.012 25.4946C20.0185 27.8165 22.342 30.2429 24.5 32.2346C26.658 30.2429 28.9815 27.8165 30.988 25.4946C32.2195 24.0695 33 22.6975 33 21.3672C33 19.2727 31.3149 17.5859 29.25 17.5859C28.3578 17.5859 27.5401 17.8989 26.8957 18.4238C26.2157 18.9776 25.8584 19.3756 25.6598 19.6194C25.6085 19.6823 25.5653 19.7381 25.5257 19.7899C25.5189 19.7989 25.5114 19.8086 25.5037 19.8188C25.4727 19.8595 25.436 19.9076 25.4045 19.9468C25.3705 19.9891 25.2937 20.0842 25.19 20.1708C25.0854 20.2581 24.8356 20.4369 24.4692 20.4297C24.1073 20.4226 23.8669 20.238 23.7697 20.1527C23.6711 20.0662 23.5976 19.9722 23.565 19.9303C23.5131 19.8635 23.4854 19.8257 23.4593 19.79C23.4258 19.7441 23.3948 19.7017 23.3181 19.6058C23.1249 19.3644 22.7751 18.9702 22.1043 18.4238C21.4599 17.8989 20.6422 17.5859 19.75 17.5859ZM14 21.3672C14 18.1805 16.5682 15.5859 19.75 15.5859C21.1202 15.5859 22.3802 16.069 23.3674 16.8731C23.8635 17.2772 24.2262 17.6246 24.4972 17.9148C24.7699 17.626 25.1346 17.2788 25.6326 16.8731C26.6198 16.069 27.8798 15.5859 29.25 15.5859C32.4318 15.5859 35 18.1805 35 21.3672C35 23.4506 33.804 25.2947 32.5012 26.8023C30.3442 29.2984 27.8246 31.918 25.5045 34.0266C24.9346 34.5446 24.0654 34.5446 23.4955 34.0266C21.1754 31.918 18.6559 29.2984 16.4988 26.8023C15.196 25.2947 14 23.4506 14 21.3672Z" fill="#2D2D2D"/>
</svg>
