<svg width="68" height="42" viewBox="0 0 68 42" fill="none" xmlns="http://www.w3.org/2000/svg">
<path d="M33 22.0001V26.0001H35V22.0001H33Z" fill="#2D2D2D"/>
<path d="M37 26.0001V22.0001H39V26.0001H37Z" fill="#2D2D2D"/>
<path d="M29 22.0001V26.0001H31V22.0001H29Z" fill="#2D2D2D"/>
<path fill-rule="evenodd" clip-rule="evenodd" d="M27.4142 18.0001L32.7071 12.7072L31.2929 11.293L24.2974 18.2885C24.2726 18.3129 24.249 18.3388 24.2267 18.3661C24.0367 18.5978 23.9607 18.9024 24.0194 19.1962L26.0194 29.1962C26.1129 29.6636 26.5233 30.0001 27 30.0001H41C41.4767 30.0001 41.8871 29.6636 41.9806 29.1962L43.9806 19.1962C44.0393 18.9024 43.9633 18.5978 43.7734 18.3661C43.7514 18.3393 43.7281 18.3138 43.7038 18.2896L36.7071 11.293L35.2929 12.7072L40.5858 18.0001H27.4142ZM27.8198 28.0001L26.2198 20.0001H41.7802L40.1802 28.0001H27.8198Z" fill="#2D2D2D"/>
</svg>
